<?xml version="1.0" encoding="UTF-8" standalone="no"?>
<!-- Created with Inkscape (http://www.inkscape.org/) -->

<svg
   width="210mm"
   height="297mm"
   viewBox="0 0 210 297"
   version="1.1"
   id="svg5"
   xml:space="preserve"
   inkscape:version="1.2.2 (b0a8486541, 2022-12-01)"
   sodipodi:docname="social media.svg"
   inkscape:export-filename="png\social media.png"
   inkscape:export-xdpi="96"
   inkscape:export-ydpi="96"
   xmlns:inkscape="http://www.inkscape.org/namespaces/inkscape"
   xmlns:sodipodi="http://sodipodi.sourceforge.net/DTD/sodipodi-0.dtd"
   xmlns="http://www.w3.org/2000/svg"
   xmlns:svg="http://www.w3.org/2000/svg"><sodipodi:namedview
     id="namedview7"
     pagecolor="#ffffff"
     bordercolor="#000000"
     borderopacity="0.25"
     inkscape:showpageshadow="2"
     inkscape:pageopacity="0.0"
     inkscape:pagecheckerboard="0"
     inkscape:deskcolor="#d1d1d1"
     inkscape:document-units="mm"
     showgrid="false"
     showguides="false"
     inkscape:zoom="0.39187386"
     inkscape:cx="345.77453"
     inkscape:cy="569.06067"
     inkscape:window-width="1280"
     inkscape:window-height="737"
     inkscape:window-x="-8"
     inkscape:window-y="-8"
     inkscape:window-maximized="1"
     inkscape:current-layer="layer1" /><defs
     id="defs2" /><g
     inkscape:label="Layer 1"
     inkscape:groupmode="layer"
     id="layer1"><g
       id="g144"
       transform="matrix(0.95747033,0,0,0.95747033,132.73264,53.135795)"><circle
         cx="24"
         cy="24"
         r="20"
         fill="#e60023"
         id="circle132" /><path
         fill="#ffffff"
         d="m 24.443909,11.416138 c -8.632324,0 -13.215393,5.794616 -13.215393,12.103088 0,2.933838 1.561523,6.585388 4.059997,7.748413 0.378418,0.176209 0.581543,0.100037 0.668457,-0.266906 0.0669,-0.278443 0.403809,-1.636902 0.555359,-2.268433 0.04846,-0.201538 0.02466,-0.374634 -0.138428,-0.57312 -0.826965,-1.003052 -1.488464,-2.846131 -1.488464,-4.564575 0,-4.411561 3.339966,-8.679993 9.029968,-8.679993 4.913086,0 8.353089,3.34845 8.353089,8.136902 0,5.409973 -2.7323,9.158447 -6.286927,9.158447 -1.963073,0 -3.433044,-1.62384 -2.961547,-3.615356 0.565429,-2.376953 1.656921,-4.941529 1.656921,-6.658448 0,-1.5354 -0.823059,-2.816955 -2.529968,-2.816955 -2.006958,0 -3.61847,2.075378 -3.61847,4.856933 0,1.77002 0.59845,2.968445 0.59845,2.968445 0,0 -1.9823,8.381531 -2.345398,9.941529 -0.401977,1.72229 -0.2453,4.141601 -0.07135,5.723388 v 0 c 0.451111,0.17688 0.902405,0.35376 1.368775,0.498108 v 0 c 0.816894,-1.32782 2.034973,-3.505676 2.48645,-5.242248 0.243835,-0.936158 1.246887,-4.754639 1.246887,-4.754639 0.65155,1.243896 2.556152,2.296936 4.58313,2.296936 6.031494,0 10.378418,-5.546936 10.378418,-12.440002 0,-6.60846 -5.391541,-11.551514 -12.329956,-11.551514 z"
         id="path134" /></g><g
       id="g158"
       transform="matrix(0.95747033,0,0,0.95747033,72.284542,53.135795)"><path
         fill="#039be5"
         d="M 24,5 A 19,19 0 1 0 24,43 19,19 0 1 0 24,5 Z"
         id="path146" /><path
         fill="#ffffff"
         d="m 26.572,29.036 h 4.917 l 0.772,-4.995 h -5.69 v -2.73 c 0,-2.075 0.678,-3.915 2.619,-3.915 h 3.119 v -4.359 c -0.548,-0.074 -1.707,-0.236 -3.897,-0.236 -4.573,0 -7.254,2.415 -7.254,7.917 v 3.323 h -4.701 v 4.995 h 4.701 V 42.765 C 22.089,42.905 23.032,43 24,43 c 0.875,0 1.729,-0.08 2.572,-0.194 z"
         id="path148" /></g><g
       id="g229"
       transform="matrix(0.95747033,0,0,0.95747033,71.327072,10.19567)"><path
         fill="#304ffe"
         d="m 41.67,13.48 c -0.4,0.26 -0.97,0.5 -1.21,0.77 -0.09,0.09 -0.14,0.19 -0.12,0.29 v 1.03 l -0.3,1.01 -0.3,1 -0.33,1.1 -0.68,2.25 -0.66,2.22 -0.5,1.67 c 0,0.26 -0.01,0.52 -0.03,0.77 -0.07,0.96 -0.27,1.88 -0.59,2.74 -0.19,0.53 -0.42,1.04 -0.7,1.52 -0.1,0.19 -0.22,0.38 -0.34,0.56 -0.4,0.63 -0.88,1.21 -1.41,1.72 -0.41,0.41 -0.86,0.79 -1.35,1.11 0,0 0,0 -0.01,0 -0.08,0.07 -0.17,0.13 -0.27,0.18 -0.31,0.21 -0.64,0.39 -0.98,0.55 -0.23,0.12 -0.46,0.22 -0.7,0.31 -0.05,0.03 -0.11,0.05 -0.16,0.07 -0.57,0.27 -1.23,0.45 -1.89,0.54 -0.04,0.01 -0.07,0.01 -0.11,0.02 -0.4,0.07 -0.79,0.13 -1.19,0.16 -0.18,0.02 -0.37,0.03 -0.55,0.03 l -0.71,-0.04 -3.42,-0.18 c 0,-0.01 -0.01,0 -0.01,0 l -1.72,-0.09 c -0.13,0 -0.27,0 -0.4,-0.01 -0.54,-0.02 -1.06,-0.08 -1.58,-0.19 -0.01,0 -0.01,0 -0.01,0 -0.95,-0.18 -1.86,-0.5 -2.71,-0.93 -0.47,-0.24 -0.93,-0.51 -1.36,-0.82 -0.18,-0.13 -0.35,-0.27 -0.52,-0.42 -0.48,-0.4 -0.91,-0.83 -1.31,-1.27 -0.06,-0.06 -0.11,-0.12 -0.16,-0.18 -0.06,-0.06 -0.12,-0.13 -0.17,-0.19 -0.38,-0.48 -0.7,-0.97 -0.96,-1.49 -0.24,-0.46 -0.43,-0.95 -0.58,-1.49 -0.06,-0.19 -0.11,-0.37 -0.15,-0.57 -0.01,-0.01 -0.02,-0.03 -0.02,-0.05 -0.1,-0.41 -0.19,-0.84 -0.24,-1.27 -0.06,-0.33 -0.09,-0.66 -0.09,-1 -0.02,-0.13 -0.02,-0.27 -0.02,-0.4 l 1.91,-2.95 1.87,-2.88 0.85,-1.31 0.77,-1.18 0.26,-0.41 v -1.03 c 0.02,-0.23 0.03,-0.47 0.02,-0.69 -0.01,-0.7 -0.15,-1.38 -0.38,-2.03 C 16.23,11.34 15.92,10.69 15.6,10.09 15.22,9.4 14.82,8.78 14.49,8.22 14,7.4 13.66,6.73 13.75,6.26 14.47,6.09 15.23,6 16,6 h 16 c 4.18,0 7.78,2.6 9.27,6.26 0.16,0.39 0.3,0.8 0.4,1.22 z"
         id="path160" /><path
         fill="#4928f4"
         d="m 42,16 v 0.27 l -1.38,0.8 -0.88,0.51 -0.97,0.56 -1.94,1.13 -1.9,1.1 -1.94,1.12 -0.77,0.45 c 0,0.48 -0.12,0.92 -0.34,1.32 -0.31,0.58 -0.83,1.06 -1.49,1.47 -0.67,0.41 -1.49,0.74 -2.41,0.98 0,0 0,-0.01 -0.01,0 -3.56,0.92 -8.42,0.5 -10.78,-1.26 -0.66,-0.49 -1.12,-1.09 -1.32,-1.78 -0.06,-0.23 -0.09,-0.48 -0.09,-0.73 V 14.75 C 15.79,14.6 15.69,14.45 15.51,14.3 14.97,13.87 13.7,13.46 12.28,13.05 11.17,12.74 9.98,12.43 8.98,12.13 8.19,11.89 7.52,11.65 7.12,11.42 7.3,11.07 7.51,10.72 7.73,10.39 9.13,8.34 11.27,6.83 13.75,6.26 14.47,6.09 15.23,6 16,6 h 10.8 c 5.37,0.94 10.32,3.13 14.47,6.26 0.16,0.39 0.3,0.8 0.4,1.22 0.18,0.66 0.29,1.34 0.32,2.05 C 42,15.68 42,15.84 42,16 Z"
         id="path162" /><path
         fill="#6200ea"
         d="m 42,16 v 4.41 l -0.22,0.68 -0.75,2.33 -0.78,2.4 -0.41,1.28 -0.38,1.19 -0.37,1.13 -0.36,1.12 -0.19,0.59 -0.25,0.78 c 0,0.76 -0.02,1.43 -0.07,2 -0.01,0.06 -0.02,0.12 -0.02,0.18 -0.06,0.53 -0.14,0.98 -0.27,1.36 -0.01,0.06 -0.03,0.12 -0.05,0.17 -0.26,0.72 -0.65,1.18 -1.23,1.48 -0.14,0.08 -0.3,0.14 -0.47,0.2 -0.53,0.18 -1.2,0.27 -2.02,0.32 -0.6,0.04 -1.29,0.05 -2.07,0.05 H 31.4 L 30.21,37.62 30,37.61 27.83,37.52 25.63,37.43 18.38,37.13 16.5,37.05 h -0.26 c -0.78,-0.01 -1.45,-0.06 -2.03,-0.14 -0.84,-0.13 -1.49,-0.35 -1.98,-0.68 -0.7,-0.45 -1.11,-1.11 -1.35,-2.03 -0.06,-0.22 -0.11,-0.45 -0.14,-0.7 -0.1,-0.58 -0.15,-1.25 -0.18,-2 0,-0.15 0,-0.3 -0.01,-0.46 -0.01,-0.01 0,-0.01 0,-0.01 v -0.58 c -0.01,-0.29 -0.01,-0.59 -0.01,-0.9 l 0.05,-1.61 0.03,-1.15 0.04,-1.34 v -0.19 l 0.07,-2.46 0.07,-2.46 0.07,-2.31 0.06,-2.27 0.02,-0.6 C 10.95,14.85 9.9,14.67 8.73,14.52 7.8,14.4 6.78,14.29 6.17,14.15 6.22,13.92 6.27,13.69 6.33,13.47 6.51,12.75 6.78,12.07 7.12,11.42 7.3,11.07 7.51,10.72 7.73,10.39 9.89,9.44 12.14,8.7 14.49,8.22 16.55,7.79 18.7,7.56 20.92,7.56 c 7.36,0 14.16,2.49 19.54,6.69 0.52,0.4 1.03,0.83 1.53,1.28 C 42,15.68 42,15.84 42,16 Z"
         id="path164" /><path
         fill="#673ab7"
         d="m 42,18.37 v 4.54 l -0.55,1.06 -1.05,2.05 -0.56,1.08 -0.51,0.99 -0.22,0.43 c 0,0.31 0,0.61 -0.02,0.9 0,0.43 -0.02,0.84 -0.05,1.22 -0.04,0.45 -0.1,0.86 -0.16,1.24 -0.15,0.79 -0.36,1.47 -0.66,2.03 -0.04,0.07 -0.08,0.14 -0.12,0.2 -0.11,0.18 -0.24,0.35 -0.38,0.51 -0.18,0.22 -0.38,0.41 -0.61,0.57 -0.34,0.26 -0.74,0.47 -1.2,0.63 -0.57,0.21 -1.23,0.35 -2.01,0.43 -0.51,0.05 -1.07,0.08 -1.68,0.08 l -0.42,0.02 -2.08,0.12 h -0.01 l -2.21,0.13 -2.25,0.13 -3.1,0.18 -3.77,0.22 -0.55,0.03 c -0.51,0 -0.99,-0.03 -1.45,-0.09 -0.05,-0.01 -0.09,-0.02 -0.14,-0.02 -0.68,-0.11 -1.3,-0.29 -1.86,-0.54 -0.68,-0.3 -1.27,-0.7 -1.77,-1.18 -0.44,-0.43 -0.82,-0.92 -1.13,-1.47 -0.07,-0.13 -0.14,-0.25 -0.2,-0.39 -0.3,-0.59 -0.54,-1.25 -0.72,-1.97 -0.03,-0.12 -0.06,-0.25 -0.08,-0.38 -0.06,-0.23 -0.11,-0.47 -0.14,-0.72 -0.11,-0.64 -0.17,-1.32 -0.2,-2.03 V 28.36 C 10.13,28.07 10.12,27.79 10.12,27.49 L 9.63,26.32 9.56,26.14 9.5,25.99 8.75,24.2 8.63,23.91 7.91,22.18 7.11,20.25 c 0,0 0,0 -0.01,0 L 6.29,18.3 6,17.59 V 16 c 0,-0.63 0.06,-1.25 0.17,-1.85 0.05,-0.23 0.1,-0.46 0.16,-0.68 0.85,-0.49 1.74,-0.94 2.65,-1.34 2.08,-0.93 4.31,-1.62 6.62,-2.04 1.72,-0.31 3.51,-0.48 5.32,-0.48 7.31,0 13.94,2.65 19.12,6.97 0.2,0.16 0.39,0.32 0.58,0.49 0.47,0.41 0.93,0.84 1.38,1.3 z"
         id="path166" /><path
         fill="#8e24aa"
         d="m 42,21.35 v 5.14 l -0.57,1.19 -1.08,2.25 -0.01,0.03 c 0,0.43 -0.02,0.82 -0.05,1.17 -0.1,1.15 -0.38,1.88 -0.84,2.33 -0.33,0.34 -0.74,0.53 -1.25,0.63 -0.03,0.01 -0.07,0.01 -0.1,0.02 -0.16,0.03 -0.33,0.05 -0.51,0.05 -0.62,0.06 -1.35,0.02 -2.19,-0.04 -0.09,0 -0.19,-0.01 -0.29,-0.02 -0.61,-0.04 -1.26,-0.08 -1.98,-0.11 -0.39,-0.01 -0.8,-0.02 -1.22,-0.02 h -0.02 l -1.01,0.08 h -0.01 l -2.27,0.16 -2.59,0.2 -0.38,0.03 -3.03,0.22 -1.57,0.12 -1.55,0.11 c -0.27,0 -0.53,0 -0.79,-0.01 0,0 -0.01,-0.01 -0.01,0 -1.13,-0.02 -2.14,-0.09 -3.04,-0.26 -0.83,-0.14 -1.56,-0.36 -2.18,-0.69 -0.64,-0.31 -1.17,-0.75 -1.6,-1.31 -0.41,-0.55 -0.71,-1.24 -0.9,-2.07 0,-0.01 0,-0.01 0,-0.01 -0.14,-0.67 -0.22,-1.45 -0.22,-2.33 L 10.59,27.94 9.7,26.35 9.57,26.13 9.5,25.99 8.57,24.34 8.11,23.51 7.53,22.48 6.53,20.69 6,19.75 v -3.68 c 0.88,-0.58 1.79,-1.09 2.73,-1.55 1.14,-0.58 2.32,-1.07 3.55,-1.47 1.34,-0.44 2.74,-0.79 4.17,-1.02 1.45,-0.24 2.94,-0.36 4.47,-0.36 6.8,0 13.04,2.43 17.85,6.47 0.22,0.17 0.43,0.36 0.64,0.54 0.84,0.75 1.64,1.56 2.37,2.41 0.08,0.09 0.16,0.17 0.22,0.26 z"
         id="path168" /><path
         fill="#c2185b"
         d="m 42,24.71 v 7.23 C 41.76,31.8 41.43,31.63 41.02,31.45 40.8,31.34 40.55,31.23 40.29,31.13 39.91,30.96 39.5,30.8 39.04,30.64 38.94,30.6 38.84,30.57 38.73,30.54 38.55,30.47 38.36,30.41 38.17,30.35 37.58,30.17 36.93,30 36.25,29.85 35.99,29.8 35.72,29.75 35.45,29.71 34.58,29.56 33.65,29.47 32.68,29.46 32.6,29.45 32.51,29.45 32.43,29.45 l -2.57,0.02 -3.5,0.02 h -0.01 l -7.49,0.06 c -2.38,0 -3.84,0.57 -4.72,0.8 0,0 -0.01,0 -0.01,0.01 -0.93,0.24 -1.22,0.09 -1.3,-1.54 C 12.81,28.37 12.8,27.79 12.8,27.08 L 12.24,26.65 11.26,25.91 10.66,25.45 10.54,25.36 8.88,24.1 8.63,23.91 8.11,23.51 7.15,22.79 6,21.91 v -3.4 c 0.1,-0.08 0.19,-0.15 0.29,-0.21 1.45,-1 3,-1.85 4.64,-2.54 1.46,-0.62 3,-1.11 4.58,-1.46 0.43,-0.09 0.87,-0.18 1.32,-0.24 1.33,-0.23 2.7,-0.34 4.09,-0.34 6.01,0 11.53,2.09 15.91,5.55 0.66,0.52 1.3,1.07 1.9,1.66 0.82,0.78 1.59,1.61 2.3,2.49 0.14,0.18 0.28,0.36 0.42,0.55 0.19,0.24 0.37,0.49 0.55,0.74 z"
         id="path170" /><path
         fill="#d81b60"
         d="M 42,28.72 V 32 c 0,0.65 -0.06,1.29 -0.18,1.91 -0.18,0.92 -0.49,1.8 -0.91,2.62 -0.22,0.05 -0.47,0.05 -0.75,0.01 -0.63,-0.11 -1.37,-0.44 -2.17,-0.87 -0.04,-0.01 -0.08,-0.03 -0.11,-0.05 -0.25,-0.13 -0.51,-0.27 -0.77,-0.43 -0.53,-0.29 -1.09,-0.61 -1.65,-0.91 -0.12,-0.06 -0.24,-0.12 -0.35,-0.18 -0.64,-0.33 -1.3,-0.63 -1.96,-0.86 0,0 0,0 -0.01,0 C 33,33.19 32.85,33.14 32.7,33.1 32.13,32.94 31.55,32.84 30.99,32.84 l -1.1,-0.32 -4.87,-1.41 c 0,0 0,0 -0.01,0 l -2.99,-0.87 h -0.01 l -1.3,-0.38 c -3.76,0 -6.07,1.6 -7.19,0.99 -0.44,-0.23 -0.7,-0.81 -0.79,-1.95 -0.03,-0.32 -0.04,-0.68 -0.04,-1.1 L 11.52,27.23 11.47,27.21 H 11.46 L 10.62,26.79 9.7,26.35 9.63,26.32 9.46,26.23 7.5,25.28 6,24.55 v -3.43 c 0.17,-0.15 0.35,-0.29 0.53,-0.43 0.19,-0.15 0.38,-0.29 0.57,-0.44 0.01,0 0.01,0 0.01,0 1.18,-0.85 2.43,-1.6 3.76,-2.22 1.55,-0.74 3.2,-1.31 4.91,-1.68 0.25,-0.06 0.51,-0.12 0.77,-0.16 1.42,-0.27 2.88,-0.41 4.37,-0.41 5.27,0 10.11,1.71 14.01,4.59 1.13,0.84 2.18,1.77 3.14,2.78 0.79,0.83 1.52,1.73 2.18,2.67 0.05,0.07 0.1,0.14 0.15,0.2 0.37,0.54 0.71,1.09 1.03,1.66 0.21,0.34 0.39,0.69 0.57,1.04 z"
         id="path172" /><path
         fill="#f50057"
         d="m 41.82,33.91 c -0.18,0.92 -0.49,1.8 -0.91,2.62 -0.19,0.37 -0.4,0.72 -0.63,1.06 -0.14,0.21 -0.29,0.41 -0.44,0.6 -0.36,-0.14 -0.89,-0.34 -1.54,-0.56 0,0 0,0 0,-0.01 -0.49,-0.17 -1.05,-0.35 -1.65,-0.52 -0.17,-0.05 -0.34,-0.1 -0.52,-0.15 -0.71,-0.19 -1.45,-0.36 -2.17,-0.46 -0.6,-0.1 -1.19,-0.16 -1.74,-0.16 L 31.76,36.2 h -0.01 l -2.42,-0.7 -1.49,-0.43 -1.66,-0.48 h -0.01 l -0.54,-0.15 -6.53,-1.88 -1.88,-0.54 -1.4,-0.33 -2.28,-0.54 -0.28,-0.07 c 0,0 0,0 -0.01,0 l -2.29,-0.53 c 0,-0.01 0,-0.01 0,-0.01 L 10.55,30.45 10.34,30.4 8.67,30.01 8.48,29.96 7.06,28.79 6,27.9 v -4.08 c 0.37,-0.36 0.75,-0.7 1.15,-1.03 0.12,-0.11 0.25,-0.21 0.38,-0.31 0.12,-0.1 0.25,-0.2 0.38,-0.3 0.91,-0.69 1.87,-1.31 2.89,-1.84 1.3,-0.7 2.68,-1.26 4.13,-1.66 0.28,-0.09 0.56,-0.17 0.85,-0.23 1.64,-0.41 3.36,-0.62 5.14,-0.62 4.47,0 8.63,1.35 12.07,3.66 1.71,1.15 3.25,2.53 4.55,4.1 0.66,0.79 1.26,1.62 1.79,2.5 0.05,0.07 0.09,0.13 0.13,0.2 0.32,0.53 0.62,1.08 0.89,1.64 0.25,0.5 0.47,1 0.67,1.52 0.32,0.8 0.58,1.62 0.8,2.46 z"
         id="path174" /><path
         fill="#ff1744"
         d="m 40.28,37.59 c -0.14,0.21 -0.29,0.41 -0.44,0.6 -0.44,0.55 -0.92,1.05 -1.46,1.49 -0.47,0.39 -0.97,0.74 -1.5,1.04 -0.2,-0.05 -0.4,-0.11 -0.61,-0.19 -0.66,-0.23 -1.35,-0.61 -1.99,-1.01 -0.96,-0.61 -1.79,-1.27 -2.16,-1.57 -0.14,-0.12 -0.21,-0.18 -0.21,-0.18 L 30.21,37.62 30,37.6 27.8,37.41 25.52,37.21 22.15,36.91 16.81,36.44 16.79,36.43 14.91,35.52 13.01,34.6 11.48,33.86 11.15,33.7 10.74,33.5 9.32,32.81 7.43,31.9 6.84,31.61 6,31.35 v -4.47 c 0.47,-0.56 0.97,-1.09 1.5,-1.6 0.34,-0.32 0.7,-0.64 1.07,-0.94 0.06,-0.05 0.12,-0.1 0.18,-0.14 0.04,-0.05 0.09,-0.08 0.13,-0.1 0.59,-0.48 1.21,-0.91 1.85,-1.3 0.74,-0.47 1.52,-0.89 2.33,-1.24 0.87,-0.39 1.78,-0.72 2.72,-0.97 1.63,-0.46 3.36,-0.7 5.14,-0.7 4.08,0 7.85,1.24 10.96,3.37 1.99,1.36 3.71,3.08 5.07,5.07 0.45,0.64 0.85,1.32 1.22,2.02 0.13,0.26 0.26,0.52 0.37,0.78 0.12,0.25 0.23,0.5 0.34,0.75 0.21,0.52 0.4,1.04 0.57,1.58 0.32,1 0.56,2.02 0.71,3.08 0.05,0.35 0.09,0.7 0.12,1.05 z"
         id="path176" /><path
         fill="#ff5722"
         d="m 38.39,39.42 c 0,0.08 0,0.17 -0.01,0.26 -0.47,0.39 -0.97,0.74 -1.5,1.04 -0.22,0.12 -0.44,0.24 -0.67,0.34 -0.23,0.11 -0.46,0.21 -0.7,0.3 -0.34,-0.18 -0.8,-0.4 -1.29,-0.61 -0.69,-0.31 -1.44,-0.59 -2.02,-0.68 -0.14,-0.03 -0.27,-0.04 -0.39,-0.04 l -1.64,-0.21 h -0.02 l -2.04,-0.27 -2.06,-0.27 -0.96,-0.12 -7.56,-0.98 c -0.49,0 -1.01,-0.03 -1.55,-0.1 -0.66,-0.06 -1.35,-0.16 -2.04,-0.3 C 13.26,37.66 12.57,37.5 11.91,37.33 11.22,37.17 10.54,36.98 9.91,36.8 9.18,36.58 8.5,36.37 7.93,36.18 7.46,36.03 7.06,35.89 6.75,35.78 6.57,35.35 6.42,34.9 6.31,34.44 6.1,33.66 6,32.84 6,32 v -1.67 c 0.32,-0.53 0.67,-1.05 1.06,-1.54 0.71,-0.94 1.52,-1.8 2.4,-2.56 0.03,-0.04 0.07,-0.07 0.1,-0.09 l 0.01,-0.01 c 0.31,-0.28 0.63,-0.53 0.97,-0.77 0.04,-0.04 0.08,-0.07 0.12,-0.1 0.16,-0.12 0.33,-0.24 0.51,-0.35 1.43,-0.97 3.01,-1.73 4.7,-2.24 1.6,-0.48 3.29,-0.73 5.05,-0.73 3.49,0 6.75,1.03 9.47,2.79 2.01,1.29 3.74,2.99 5.06,4.98 0.16,0.23 0.31,0.46 0.46,0.7 0.69,1.17 1.26,2.43 1.68,3.75 0.05,0.15 0.09,0.3 0.13,0.46 0.08,0.27 0.15,0.55 0.21,0.83 0.02,0.07 0.04,0.14 0.06,0.22 0.14,0.63 0.24,1.29 0.31,1.95 0,0.01 0,0.01 0,0.01 0.06,0.59 0.09,1.19 0.09,1.79 z"
         id="path178" /><path
         fill="#ff6f00"
         d="m 36.33,39.42 c 0,0.35 -0.02,0.73 -0.06,1.11 -0.02,0.18 -0.04,0.36 -0.06,0.53 -0.23,0.11 -0.46,0.21 -0.7,0.3 -0.45,0.17 -0.91,0.31 -1.38,0.41 -0.32,0.07 -0.65,0.13 -0.98,0.16 h -0.01 c -0.31,-0.19 -0.67,-0.42 -1.04,-0.68 -0.67,-0.47 -1.37,-1 -1.93,-1.43 -0.01,-0.01 -0.01,-0.01 -0.02,-0.02 -0.59,-0.45 -1.01,-0.79 -1.01,-0.79 l -1.06,0.04 -2.04,0.07 -0.95,0.04 -3.82,0.14 -3.23,0.12 c -0.21,0.01 -0.46,0.01 -0.77,0 H 17.26 C 16.84,39.41 16.34,39.38 15.79,39.33 15.15,39.28 14.45,39.22 13.74,39.15 13.05,39.07 12.35,38.99 11.68,38.91 10.94,38.83 10.24,38.74 9.64,38.66 9.17,38.6 8.76,38.55 8.43,38.51 8.15,38.19 7.9,37.86 7.66,37.5 7.3,36.96 6.99,36.39 6.75,35.78 6.57,35.35 6.42,34.9 6.31,34.44 6.6,33.55 6.98,32.71 7.43,31.9 7.79,31.24 8.21,30.61 8.67,30.01 9.12,29.42 9.61,28.87 10.14,28.37 v -0.01 c 0.15,-0.15 0.3,-0.29 0.45,-0.42 0.28,-0.26 0.57,-0.5 0.87,-0.73 h 0.01 c 0.01,-0.02 0.02,-0.02 0.03,-0.03 0.24,-0.19 0.49,-0.36 0.74,-0.53 1.48,-1.01 3.15,-1.76 4.95,-2.2 1.19,-0.29 2.44,-0.45 3.73,-0.45 2.54,0 4.94,0.61 7.05,1.71 h 0.01 c 1.81,0.93 3.41,2.21 4.7,3.75 0.71,0.82 1.32,1.72 1.82,2.67 0.35,0.64 0.65,1.31 0.9,1.99 0.02,0.06 0.04,0.11 0.06,0.16 0.17,0.5 0.32,1.02 0.45,1.54 0.09,0.37 0.16,0.75 0.22,1.13 0.02,0.12 0.04,0.23 0.05,0.35 0.1,0.69 0.15,1.4 0.15,2.12 z"
         id="path180" /><path
         fill="#ff9800"
         d="m 34.28,39.42 v 0.1 c 0,0.34 -0.03,0.77 -0.06,1.23 -0.03,0.34 -0.06,0.69 -0.09,1.02 -0.32,0.07 -0.65,0.13 -0.98,0.16 H 33.14 C 32.76,41.98 32.39,42 32,42 h -1.75 l -0.38,-0.11 -1.97,-0.6 -2,-0.6 -4.63,-1.39 -2,-0.6 c 0,0 -0.83,0.33 -2,0.72 h -0.01 c -0.45,0.15 -0.94,0.31 -1.46,0.47 -0.65,0.19 -1.34,0.38 -2.02,0.53 -0.7,0.16 -1.39,0.28 -2.01,0.33 -0.19,0.02 -0.38,0.03 -0.55,0.03 C 10.66,40.47 10.12,40.1 9.63,39.69 9.2,39.33 8.8,38.94 8.43,38.51 8.15,38.19 7.9,37.86 7.66,37.5 c 0.07,-0.45 0.15,-0.89 0.27,-1.32 0.3,-1.19 0.77,-2.33 1.39,-3.37 0.34,-0.59 0.72,-1.16 1.16,-1.69 0.01,-0.03 0.04,-0.06 0.07,-0.08 -0.01,-0.01 0,-0.01 0,-0.01 0.13,-0.17 0.27,-0.33 0.41,-0.48 0,-0.01 0,-0.01 0,-0.01 0.41,-0.44 0.83,-0.86 1.29,-1.25 0.16,-0.13 0.31,-0.26 0.48,-0.39 0.03,-0.03 0.06,-0.05 0.1,-0.08 2.25,-1.72 5.06,-2.76 8.09,-2.76 3.44,0 6.57,1.29 8.94,3.41 1.14,1.03 2.11,2.26 2.84,3.63 0.06,0.1 0.12,0.21 0.17,0.32 0.09,0.18 0.18,0.37 0.26,0.57 0.33,0.72 0.59,1.48 0.77,2.26 0.02,0.08 0.04,0.16 0.06,0.24 0.08,0.37 0.15,0.75 0.2,1.13 0.08,0.59 0.12,1.19 0.12,1.8 z"
         id="path182" /><path
         fill="#ffc107"
         d="m 32.22,39.42 c 0,0.2 -0.01,0.42 -0.02,0.65 -0.02,0.37 -0.05,0.77 -0.1,1.18 -0.02,0.25 -0.06,0.5 -0.1,0.75 h -5.48 l -1.06,-0.17 -4.14,-0.66 -0.59,-0.09 -1.35,-0.22 c -0.59,0 -1.87,0.26 -3.22,0.51 -0.71,0.13 -1.43,0.27 -2.08,0.36 -0.08,0.01 -0.16,0.02 -0.23,0.03 h -0.01 c -0.7,-0.15 -1.38,-0.38 -2.02,-0.68 -0.2,-0.09 -0.4,-0.19 -0.6,-0.3 -0.56,-0.31 -1.1,-0.68 -1.59,-1.09 -0.01,-0.12 -0.02,-0.22 -0.02,-0.27 0,-0.26 0.01,-0.51 0.03,-0.76 0.04,-0.64 0.13,-1.26 0.27,-1.86 0.22,-0.91 0.54,-1.79 0.97,-2.6 0.08,-0.17 0.17,-0.34 0.27,-0.5 0.04,-0.08 0.09,-0.15 0.13,-0.23 0.18,-0.29 0.38,-0.57 0.58,-0.85 0.42,-0.55 0.89,-1.07 1.39,-1.54 0.01,0 0.01,0 0.01,0 0.04,-0.04 0.08,-0.08 0.12,-0.11 0.05,-0.04 0.09,-0.09 0.14,-0.12 0.2,-0.18 0.4,-0.34 0.61,-0.49 0,-0.01 0.01,-0.01 0.01,-0.01 1.89,-1.41 4.23,-2.24 6.78,-2.24 1.98,0 3.82,0.5 5.43,1.38 h 0.01 c 1.38,0.76 2.58,1.79 3.53,3.03 0.37,0.48 0.7,0.99 0.98,1.53 h 0.01 c 0.05,0.1 0.1,0.2 0.15,0.3 0.3,0.59 0.54,1.21 0.72,1.85 h 0.01 c 0.01,0.05 0.03,0.1 0.04,0.15 0.12,0.43 0.22,0.87 0.29,1.32 0.01,0.09 0.02,0.19 0.03,0.28 0.07,0.48 0.1,0.97 0.1,1.47 z"
         id="path184" /><path
         fill="#ffd54f"
         d="m 30.17,39.31 c 0,0.16 0,0.33 -0.02,0.49 v 0.01 c 0,0.01 0,0.01 0,0.01 -0.02,0.72 -0.12,1.43 -0.28,2.07 0,0.04 -0.01,0.07 -0.03,0.11 H 25.17 L 21.32,41.17 20.81,41.06 20.73,41.08 16.46,41.96 16.27,42 H 16 c -0.64,0 -1.27,-0.06 -1.88,-0.18 -0.09,-0.02 -0.18,-0.04 -0.27,-0.06 h -0.01 c -0.7,-0.15 -1.38,-0.38 -2.02,-0.68 -0.02,-0.11 -0.04,-0.22 -0.05,-0.33 -0.07,-0.43 -0.1,-0.88 -0.1,-1.33 0,-0.17 0,-0.34 0.01,-0.51 0.03,-0.54 0.11,-1.07 0.23,-1.58 0.08,-0.38 0.19,-0.75 0.32,-1.1 0.11,-0.31 0.24,-0.61 0.38,-0.9 0.12,-0.25 0.26,-0.49 0.4,-0.73 0.14,-0.23 0.29,-0.45 0.45,-0.67 0.4,-0.55 0.87,-1.06 1.39,-1.51 0.3,-0.26 0.63,-0.51 0.97,-0.73 1.46,-0.96 3.21,-1.52 5.1,-1.52 0.37,0 0.73,0.02 1.08,0.07 h 0.02 c 1.07,0.12 2.07,0.42 2.99,0.87 0.01,0 0.01,0 0.01,0 1.45,0.71 2.68,1.78 3.58,3.1 0.15,0.22 0.3,0.46 0.43,0.7 0.11,0.19 0.21,0.39 0.3,0.59 0.14,0.31 0.27,0.64 0.38,0.97 h 0.01 c 0.11,0.37 0.21,0.74 0.28,1.13 v 0.01 c 0.11,0.55 0.17,1.12 0.17,1.7 z"
         id="path186" /><path
         fill="#ffe082"
         d="m 28.11,39.52 v 0.03 c 0,0.59 -0.07,1.17 -0.21,1.74 -0.05,0.24 -0.12,0.48 -0.21,0.71 H 23.21 L 20.92,41.37 18.63,42 H 16 c -0.64,0 -1.27,-0.06 -1.88,-0.18 -0.02,-0.03 -0.03,-0.06 -0.04,-0.09 -0.14,-0.43 -0.25,-0.86 -0.3,-1.31 -0.04,-0.29 -0.06,-0.59 -0.06,-0.9 0,-0.12 0,-0.25 0.02,-0.37 0.01,-0.47 0.08,-0.93 0.2,-1.37 0.06,-0.3 0.15,-0.59 0.27,-0.87 0.04,-0.14 0.1,-0.27 0.17,-0.4 0.15,-0.34 0.33,-0.67 0.53,-0.99 0.22,-0.32 0.46,-0.62 0.73,-0.9 0.32,-0.36 0.68,-0.69 1.09,-0.96 0.7,-0.51 1.5,-0.89 2.37,-1.1 0.58,-0.16 1.19,-0.24 1.82,-0.24 2,0 3.79,0.8 5.09,2.09 0.05,0.05 0.11,0.11 0.16,0.18 h 0.01 c 0.14,0.15 0.27,0.3 0.4,0.47 0.37,0.47 0.68,0.98 0.92,1.54 0.12,0.26 0.22,0.53 0.3,0.81 0.01,0.04 0.02,0.07 0.03,0.11 0.14,0.49 0.23,1 0.25,1.53 0.02,0.15 0.03,0.31 0.03,0.47 z"
         id="path188" /><path
         fill="#ffecb3"
         d="m 26.06,39.52 c 0,0.41 -0.05,0.8 -0.16,1.17 -0.1,0.4 -0.25,0.78 -0.44,1.14 -0.03,0.06 -0.1,0.17 -0.1,0.17 h -8.88 c -0.01,-0.01 -0.02,-0.03 -0.02,-0.04 -0.12,-0.19 -0.22,-0.38 -0.3,-0.59 -0.2,-0.46 -0.32,-0.96 -0.36,-1.48 -0.02,-0.12 -0.02,-0.25 -0.02,-0.37 0,-0.06 0,-0.13 0.01,-0.19 0.01,-0.44 0.07,-0.86 0.19,-1.25 0.1,-0.36 0.23,-0.69 0.4,-1.01 0,0 0.01,-0.01 0.01,-0.02 0.12,-0.21 0.25,-0.42 0.4,-0.62 0.49,-0.66 1.14,-1.2 1.89,-1.55 0.01,0 0.01,0 0.01,0 0.24,-0.12 0.49,-0.22 0.75,-0.29 0,0 0,0 0.01,0 0.46,-0.14 0.96,-0.21 1.47,-0.21 0.59,0 1.16,0.09 1.68,0.28 0.19,0.05 0.37,0.13 0.55,0.22 0,0 0,0 0.01,0 0.86,0.41 1.59,1.05 2.09,1.85 0.1,0.15 0.19,0.31 0.27,0.48 0.04,0.07 0.08,0.15 0.11,0.22 0.23,0.52 0.37,1.09 0.41,1.69 0.01,0.05 0.01,0.1 0.01,0.16 0.01,0.08 0.01,0.16 0.01,0.24 z"
         id="path190" /><g
         id="g196"><path
           fill="none"
           stroke="#ffffff"
           stroke-linecap="round"
           stroke-linejoin="round"
           stroke-miterlimit="10"
           stroke-width="2"
           d="M 30,11 H 18 c -3.9,0 -7,3.1 -7,7 v 12 c 0,3.9 3.1,7 7,7 h 12 c 3.9,0 7,-3.1 7,-7 V 18 c 0,-3.9 -3.1,-7 -7,-7 z"
           id="path192" /><circle
           cx="31"
           cy="16"
           r="1"
           fill="#ffffff"
           id="circle194" /></g><g
         id="g200"><circle
           cx="24"
           cy="24"
           r="6"
           fill="none"
           stroke="#ffffff"
           stroke-linecap="round"
           stroke-linejoin="round"
           stroke-miterlimit="10"
           stroke-width="2"
           id="circle198" /></g></g><g
       id="g252"
       transform="matrix(0.95747033,0,0,0.95747033,11.306998,53.135476)"><path
         fill="#455a64"
         d="m 14.539,6 h 2.125 l 1.37,5.496 h 0.133 l 1.308,-5.493 h 2.147 l -2.458,8.036 V 20 h -2.112 v -5.703 z m 6.986,5.923 c 0,-0.784 0.254,-1.411 0.759,-1.874 0.504,-0.466 1.182,-0.7 2.035,-0.7 0.778,0 1.413,0.245 1.908,0.737 0.495,0.488 0.743,1.121 0.743,1.894 v 5.235 c 0,0.866 -0.242,1.548 -0.728,2.044 C 25.756,19.753 25.09,20 24.235,20 23.412,20 22.758,19.741 22.261,19.233 21.768,18.725 21.523,18.039 21.523,17.178 v -5.256 h 0.002 z m 1.93,5.445 c 0,0.275 0.066,0.494 0.205,0.646 0.132,0.15 0.322,0.226 0.571,0.226 0.255,0 0.454,-0.077 0.604,-0.234 0.149,-0.151 0.226,-0.366 0.226,-0.638 v -5.522 c 0,-0.22 -0.079,-0.399 -0.231,-0.536 -0.151,-0.135 -0.352,-0.205 -0.599,-0.205 -0.229,0 -0.417,0.07 -0.561,0.205 -0.143,0.137 -0.215,0.316 -0.215,0.536 z M 33.918,9.605 V 20 h -1.875 v -1.266 c -0.346,0.414 -0.705,0.728 -1.081,0.941 C 30.59,19.89 30.227,20 29.876,20 c -0.435,0 -0.76,-0.149 -0.981,-0.452 -0.221,-0.3 -0.329,-0.751 -0.329,-1.357 V 9.605 h 1.874 v 7.886 c 0,0.236 0.04,0.41 0.12,0.519 0.075,0.104 0.207,0.162 0.38,0.162 0.141,0 0.315,-0.071 0.522,-0.215 0.213,-0.141 0.406,-0.324 0.581,-0.544 V 9.605 Z"
         id="path231" /><path
         fill="#ffffff"
         d="m 38.799,26.439 c 0,-2.342 -1.94,-4.24 -4.329,-4.24 -3.412,-0.143 -6.905,-0.203 -10.47,-0.198 -3.563,-0.005 -7.056,0.056 -10.47,0.198 -2.387,0 -4.327,1.898 -4.327,4.24 -0.142,1.852 -0.208,3.706 -0.203,5.562 -0.005,1.853 0.06,3.707 0.204,5.561 0,2.345 1.938,4.243 4.326,4.243 3.414,0.14 6.907,0.2 10.47,0.195 3.564,0.008 7.058,-0.056 10.47,-0.195 2.389,0 4.329,-1.898 4.329,-4.243 0.142,-1.854 0.209,-3.708 0.201,-5.561 0.008,-1.856 -0.059,-3.71 -0.201,-5.562 z"
         id="path233" /><g
         id="g239"><path
           fill="#f44336"
           d="m 33.851,30.346 c -0.219,0 -0.368,0.058 -0.458,0.18 -0.064,0.091 -0.145,0.299 -0.145,0.752 v 0.774 h 1.193 v -0.774 c 0,-0.446 -0.083,-0.655 -0.151,-0.757 -0.085,-0.119 -0.229,-0.175 -0.439,-0.175 z m -6.986,0.04 c -0.086,0.042 -0.17,0.105 -0.258,0.193 v 5.876 c 0.11,0.111 0.217,0.191 0.316,0.242 0.111,0.055 0.224,0.08 0.346,0.08 0.231,0 0.303,-0.091 0.326,-0.123 0.057,-0.071 0.119,-0.219 0.119,-0.54 v -5.005 c 0,-0.278 -0.053,-0.493 -0.152,-0.625 -0.134,-0.178 -0.398,-0.248 -0.697,-0.098 z"
           id="path235" /><path
           fill="#f44336"
           d="m 38.799,26.439 c 0,-2.342 -1.94,-4.24 -4.329,-4.24 -3.412,-0.143 -6.905,-0.203 -10.47,-0.198 -3.563,-0.005 -7.056,0.056 -10.47,0.198 -2.387,0 -4.327,1.898 -4.327,4.24 -0.142,1.852 -0.208,3.706 -0.203,5.562 -0.005,1.853 0.06,3.707 0.204,5.561 0,2.345 1.938,4.243 4.326,4.243 3.414,0.14 6.907,0.2 10.47,0.195 3.564,0.008 7.058,-0.056 10.47,-0.195 2.389,0 4.329,-1.898 4.329,-4.243 0.142,-1.854 0.209,-3.708 0.201,-5.561 0.008,-1.856 -0.059,-3.71 -0.201,-5.562 z M 15.701,38.382 c 0,0.111 -0.092,0.204 -0.206,0.204 h -2.049 c -0.114,0 -0.206,-0.093 -0.206,-0.204 v -11.03 h -1.914 c -0.113,0 -0.205,-0.092 -0.205,-0.203 v -1.904 c 0,-0.112 0.092,-0.204 0.205,-0.204 h 6.291 c 0.114,0 0.206,0.092 0.206,0.204 v 1.904 c 0,0.111 -0.091,0.203 -0.206,0.203 h -1.916 z m 7.294,0 c 0,0.111 -0.092,0.204 -0.206,0.204 h -1.822 c -0.114,0 -0.206,-0.093 -0.206,-0.204 v -0.551 c -0.243,0.233 -0.486,0.418 -0.738,0.56 -0.397,0.227 -0.776,0.336 -1.16,0.336 -0.488,0 -0.864,-0.176 -1.117,-0.517 -0.238,-0.324 -0.361,-0.803 -0.361,-1.421 v -8.1 c 0,-0.112 0.092,-0.204 0.207,-0.204 h 1.821 c 0.114,0 0.206,0.092 0.206,0.204 v 7.428 c 0,0.244 0.044,0.343 0.072,0.382 0.013,0.017 0.05,0.067 0.205,0.067 0.052,0 0.172,-0.022 0.389,-0.169 0.176,-0.115 0.334,-0.259 0.473,-0.425 v -7.283 c 0,-0.112 0.092,-0.204 0.207,-0.204 h 1.821 c 0.114,0 0.206,0.092 0.206,0.204 v 9.692 h 0.003 z M 30,36.373 c 0,0.736 -0.159,1.31 -0.473,1.708 -0.326,0.418 -0.797,0.626 -1.398,0.626 -0.383,0 -0.733,-0.077 -1.046,-0.233 -0.166,-0.083 -0.327,-0.191 -0.479,-0.325 v 0.233 c 0,0.114 -0.093,0.204 -0.206,0.204 h -1.837 c -0.114,0 -0.207,-0.09 -0.207,-0.204 v -13.14 c 0,-0.112 0.092,-0.203 0.207,-0.203 h 1.837 c 0.113,0 0.206,0.091 0.206,0.203 v 3.717 c 0.15,-0.136 0.31,-0.25 0.474,-0.343 0.309,-0.17 0.625,-0.256 0.941,-0.256 0.641,0 1.143,0.238 1.484,0.706 0.328,0.45 0.495,1.101 0.495,1.933 z m 6.729,-2.608 c 0,0.113 -0.093,0.205 -0.207,0.205 h -3.273 v 1.621 c 0,0.592 0.082,0.845 0.148,0.951 0.053,0.088 0.152,0.199 0.438,0.199 0.23,0 0.388,-0.055 0.469,-0.164 0.037,-0.058 0.139,-0.28 0.139,-0.988 v -0.675 c 0,-0.114 0.093,-0.204 0.207,-0.204 h 1.872 c 0.114,0 0.205,0.09 0.205,0.204 v 0.729 c 0,1.044 -0.249,1.844 -0.737,2.384 -0.49,0.543 -1.23,0.82 -2.198,0.82 -0.872,0 -1.574,-0.296 -2.079,-0.871 -0.5,-0.571 -0.755,-1.354 -0.755,-2.333 v -4.352 c 0,-0.892 0.278,-1.63 0.83,-2.196 0.55,-0.568 1.274,-0.857 2.144,-0.857 0.89,0 1.587,0.271 2.072,0.803 0.48,0.526 0.724,1.284 0.724,2.251 v 2.474 h 10e-4 z"
           id="path237" /></g></g><g
       id="g284"
       transform="matrix(0.95747033,0,0,0.95747033,11.305287,194.40277)"><path
         fill="#607d8b"
         d="m 9,28 h 3 V 42 H 9 Z"
         id="path254" /><path
         fill="#607d8b"
         d="m 9,39 h 26 v 3 H 9 Z"
         id="path256" /><path
         fill="#607d8b"
         d="m 32,28 h 3 v 14 h -3 z m -17,6 h 14 v 3 H 15 Z"
         id="path258" /><path
         fill="#a68a6e"
         d="m 14.88,29 h 14 v 3 h -14 z"
         transform="rotate(6.142,21.88,30.5)"
         id="path260" /><path
         fill="#ef6c00"
         d="m 29.452,11.646 h 13.999 v 3.001 H 29.452 Z"
         transform="rotate(81.234,36.453,13.148)"
         id="path262" /><path
         fill="#ff9800"
         d="m 23.576,13.578 h 13.998 v 3.001 H 23.576 Z"
         transform="rotate(60.79,30.576,15.079)"
         id="path264" /><path
         fill="#d38b28"
         d="m 18.395,18.275 h 13.998 v 3.001 H 18.395 Z"
         transform="rotate(34.765,25.396,19.777)"
         id="path266" /><path
         fill="#c09553"
         d="M 15.977,23.499 H 29.976 V 26.5 H 15.977 Z"
         transform="rotate(19.785,22.978,25.003)"
         id="path268" /></g><path
       fill="#8c9eff"
       d="m 172.94639,21.685314 c 0,0 -4.39,-3.435404 -9.5747,-3.829881 l -0.46725,0.934491 c 4.68778,1.147049 6.83826,2.791025 9.08448,4.810331 -3.87297,-1.977176 -7.6971,-3.829882 -14.36206,-3.829882 -6.66494,0 -10.48908,1.852706 -14.36205,3.829882 2.24623,-2.019306 4.80459,-3.844244 9.08448,-4.810331 l -0.46724,-0.934491 c -5.4394,0.514161 -9.57471,3.829881 -9.57471,3.829881 0,0 -4.9032,7.109217 -5.74482,21.064347 4.94246,5.699823 12.44711,5.744823 12.44711,5.744823 l 1.56929,-2.092071 c -2.66367,-0.925873 -5.67204,-2.579427 -8.27158,-5.567692 3.10029,2.345802 7.77945,4.787349 15.31952,4.787349 7.54009,0 12.21924,-2.441547 15.31953,-4.787349 -2.59953,2.988265 -5.6079,4.641819 -8.27158,5.567692 l 1.56929,2.092071 c 0,0 7.50465,-0.045 12.44711,-5.744823 -0.84161,-13.95513 -5.74482,-21.064347 -5.74482,-21.064347 z m -21.54307,17.234467 c -1.8508,0 -3.35116,-1.714829 -3.35116,-3.82988 0,-2.115054 1.50036,-3.829883 3.35116,-3.829883 1.85078,0 3.35114,1.714829 3.35114,3.829883 0,2.115051 -1.50036,3.82988 -3.35114,3.82988 z m 12.4471,0 c -1.85079,0 -3.35114,-1.714829 -3.35114,-3.82988 0,-2.115054 1.50035,-3.829883 3.35114,-3.829883 1.8508,0 3.35115,1.714829 3.35115,3.829883 0,2.115051 -1.50035,3.82988 -3.35115,3.82988 z"
       id="path286"
       style="stroke-width:0.957471" /><g
       id="g316"
       transform="matrix(0.95747033,0,0,0.95747033,73.242012,148.59043)"><path
         fill="#ffffff"
         d="M 41,24 C 41,33.4 33.4,41 24,41 14.6,41 7,33.4 7,24 7,14.6 14.6,7 24,7 c 9.4,0 17,7.6 17,17 z"
         id="path295" /><path
         fill="#455a64"
         d="m 21,41 v -5.5 c 0,-0.3 0.2,-0.5 0.5,-0.5 0.3,0 0.5,0.2 0.5,0.5 V 41 h 2 v -6.5 c 0,-0.3 0.2,-0.5 0.5,-0.5 0.3,0 0.5,0.2 0.5,0.5 V 41 h 2 v -5.5 c 0,-0.3 0.2,-0.5 0.5,-0.5 0.3,0 0.5,0.2 0.5,0.5 V 41 h 1.8 C 30,40.7 30,40.4 30,39.9 V 36 c 0,-2.2 -1.9,-5.2 -4.3,-5.2 h -2.5 c -2.3,0 -4.3,3.1 -4.3,5.2 v 3.9 c 0,0.4 0.1,0.8 0.2,1.1 z M 40.1,26.4 c 0,0 0,0 0,0 0,0 -1.3,-0.4 -2.4,-0.4 0,0 -0.1,0 -0.1,0 -1.1,0 -2.9,0.3 -2.9,0.3 -0.1,0 -0.1,0 -0.1,-0.1 0,-0.1 0,-0.1 0.1,-0.1 0.1,0 2,-0.3 3.1,-0.3 1.1,0 2.4,0.4 2.5,0.4 0.1,0 0.1,0.1 0.1,0.2 -0.2,-0.1 -0.2,0 -0.3,0 z m -0.3,0.8 c 0,0 0,0 0,0 0,0 -1.4,-0.4 -2.6,-0.4 -0.9,0 -3,0.2 -3.1,0.2 -0.1,0 -0.1,0 -0.1,-0.1 0,-0.1 0,-0.1 0.1,-0.1 0.1,0 2.2,-0.2 3.1,-0.2 1.3,0 2.6,0.4 2.6,0.4 0.1,0 0.1,0.1 0.1,0.2 0,-0.1 0,0 -0.1,0 z m -32,-0.8 c -0.1,0 -0.1,0 -0.1,-0.1 0,-0.1 0,-0.1 0.1,-0.2 0.8,-0.2 2.4,-0.5 3.3,-0.5 0.8,0 3.5,0.2 3.6,0.2 0.1,0 0.1,0.1 0.1,0.1 0,0.1 -0.1,0.1 -0.1,0.1 0,0 -2.7,-0.2 -3.5,-0.2 -1.1,0.2 -2.6,0.4 -3.4,0.6 0,0 0,0 0,0 z m 0.4,1.5 c 0,0 -0.1,0 -0.1,-0.1 0,-0.1 0,-0.1 0,-0.2 0.1,0 1.4,-0.8 2.9,-1 1.3,-0.2 4,0.1 4.2,0.1 0.1,0 0.1,0.1 0.1,0.1 0,0.1 -0.1,0.1 -0.1,0.1 0,0 0,0 0,0 0,0 -2.8,-0.3 -4.1,-0.1 -1.5,0.3 -2.9,1.1 -2.9,1.1 0,0 0,0 0,0 z"
         id="path297" /><path
         fill="#455a64"
         d="m 14.2,23.5 c 0,-4.4 4.6,-8.5 10.3,-8.5 5.7,0 10.3,4 10.3,8.5 0,4.5 -3.3,7.5 -10.3,7.5 -7,0 -10.3,-3.1 -10.3,-7.5 z"
         id="path299" /><path
         fill="#455a64"
         d="m 28.6,16.3 c 0,0 1.7,-2.3 4.8,-2.3 1.2,1.2 0.4,4.8 0,5.8 z m -8.2,0 c 0,0 -1.7,-2.3 -4.8,-2.3 -1.2,1.2 -0.4,4.8 0,5.8 z m -0.3,19.6 c 0,0 -2.3,0 -2.8,0 -1.2,0 -2.3,-0.5 -2.8,-1.5 -0.6,-1.1 -1.1,-2.3 -2.6,-3.3 -0.3,-0.2 -0.1,-0.4 0.4,-0.4 0.5,0.1 1.4,0.2 2.1,1.1 0.7,0.9 1.5,2 2.8,2 1.3,0 2.7,0 3.5,-0.9 z"
         id="path301" /><path
         fill="#00bcd4"
         d="M 24,4 C 13,4 4,13 4,24 4,35 13,44 24,44 35,44 44,35 44,24 44,13 35,4 24,4 Z m 0,36 C 15.2,40 8,32.8 8,24 8,15.2 15.2,8 24,8 c 8.8,0 16,7.2 16,16 0,8.8 -7.2,16 -16,16 z"
         id="path303" /></g><g
       id="g333"
       transform="matrix(0.95747033,0,0,0.95747033,134.64758,100.86327)"><circle
         cx="14"
         cy="24"
         r="12"
         fill="#424242"
         id="circle318" /><ellipse
         cx="34"
         cy="24"
         fill="#424242"
         rx="6"
         ry="11"
         id="ellipse320" /><ellipse
         cx="44"
         cy="24"
         fill="#424242"
         rx="2"
         ry="10"
         id="ellipse322" /></g><g
       id="g347"
       transform="matrix(0.95747033,0,0,0.95747033,132.73264,148.59043)"><path
         fill="#1976d2"
         d="M 24,4 A 20,20 0 1 0 24,44 20,20 0 1 0 24,4 Z"
         id="path335" /><path
         fill="#ffffff"
         d="M 35.937,18.041 C 35.983,17.89 36.005,17.75 35.999,17.625 35.984,17.263 35.735,17 35.149,17 h -2.618 c -0.661,0 -0.966,0.4 -1.144,0.801 0,0 -1.632,3.359 -3.513,5.574 C 27.264,24.016 26.954,24 26.624,24 26.447,24 26,23.786 26,23.199 V 18.014 C 26,17.32 25.827,17 25.268,17 H 20.619 C 20.212,17 20,17.32 20,17.641 c 0,0.667 0.898,0.827 1,2.696 V 23.96 C 21,24.84 20.847,25 20.517,25 19.627,25 17.875,22 16.702,18.068 16.448,17.294 16.194,17 15.533,17 H 12.89 C 12.127,17 12,17.374 12,17.774 c 0,0.721 0.6,4.619 3.875,9.101 2.375,3.25 5.504,5.125 8.274,5.125 1.678,0 1.85,-0.427 1.85,-1.094 V 27.934 C 26,27.133 26.183,27 26.717,27 c 0.381,0 1.158,0.25 2.658,2 1.73,2.018 2.044,3 3.036,3 h 2.618 C 35.637,32 35.986,31.745 36,31.25 36.003,31.124 35.985,30.983 35.944,30.826 35.75,30.25 34.86,28.842 33.75,27.5 33.135,26.757 32.528,26.021 32.249,25.621 32.062,25.36 31.991,25.176 32,25 c 0.009,-0.185 0.105,-0.361 0.249,-0.607 -0.026,0 3.358,-4.751 3.688,-6.352 z"
         id="path337" /></g><g
       id="g376"
       transform="matrix(0.95747033,0,0,0.95747033,73.405851,194.28398)"><path
         fill="#ffffff"
         d="m 12.193,19.555 c -1.94,-1.741 -4.79,-1.727 -6.365,0.029 -1.576,1.756 -1.301,5.023 0.926,6.632 z m 23.614,0 c 1.939,-1.741 4.789,-1.727 6.365,0.029 1.575,1.756 1.302,5.023 -0.927,6.632 z M 38.32,6.975 a 3.5,3.5 0 1 0 0,7 3.5,3.5 0 1 0 0,-7 z"
         id="path349" /><path
         fill="#ffffff"
         d="m 24.085,15.665 a 18.085,12.946 0 1 0 0,25.892 18.085,12.946 0 1 0 0,-25.892 z"
         id="path351" /><g
         id="g355"><path
           fill="#d84315"
           d="m 30.365,23.506 a 2.884,2.884 0 1 0 0,5.768 2.884,2.884 0 1 0 0,-5.768 z m -12.73,0 a 2.884,2.884 0 1 0 0,5.768 2.884,2.884 0 1 0 0,-5.768 z"
           id="path353" /></g><g
         id="g361"><path
           fill="#37474f"
           d="M 24.002,34.902 C 20.75,34.902 17.862,34.157 16,33 c 1.024,2.044 4.196,4 8.002,4 3.802,0 6.976,-1.956 7.998,-4 -1.857,1.157 -4.746,1.902 -7.998,1.902 z M 41.83,27.026 40.66,25.405 c 0.831,-0.6 1.373,-1.556 1.488,-2.623 0.105,-0.98 -0.157,-1.903 -0.721,-2.531 -0.571,-0.637 -1.391,-0.99 -2.307,-0.994 -0.927,0.013 -1.894,0.365 -2.646,1.041 L 35.138,18.81 c 1.123,-1.008 2.545,-1.523 3.991,-1.553 1.488,0.007 2.833,0.596 3.786,1.658 0.942,1.05 1.387,2.537 1.221,4.081 -0.175,1.63 -1.015,3.1 -2.306,4.03 z m -35.661,0 c -1.29,-0.932 -2.131,-2.401 -2.306,-4.031 -0.166,-1.543 0.279,-3.03 1.221,-4.079 0.953,-1.062 2.297,-1.651 3.785,-1.658 0.009,0 0.018,0 0.027,0 1.441,0 2.849,0.551 3.965,1.553 l -1.336,1.488 C 10.772,19.623 9.836,19.294 8.879,19.258 7.963,19.262 7.144,19.615 6.573,20.252 6.01,20.88 5.747,21.802 5.852,22.782 5.967,23.849 6.509,24.805 7.34,25.406 Z M 25,16.84 h -2 c 0,-2.885 0,-10.548 4.979,-10.548 2.154,0 3.193,1.211 3.952,2.096 0.629,0.734 0.961,1.086 1.616,1.086 h 1.37 v 2 h -1.37 c -1.604,0 -2.453,-0.99 -3.135,-1.785 C 29.742,8.908 29.214,8.291 27.978,8.291 25.975,8.292 25,11.088 25,16.84 Z"
           id="path357" /><path
           fill="#37474f"
           d="m 24.085,16.95 c 9.421,0 17.085,5.231 17.085,11.661 0,6.431 -7.664,11.662 -17.085,11.662 C 14.664,40.273 7,35.042 7,28.611 7,22.181 14.664,16.95 24.085,16.95 m 0,-2 C 13.544,14.95 5,21.066 5,28.611 c 0,7.546 8.545,13.662 19.085,13.662 10.54,0 19.085,-6.116 19.085,-13.662 0,-7.545 -8.545,-13.661 -19.085,-13.661 z M 38.32,7.975 c 1.379,0 2.5,1.122 2.5,2.5 0,1.378 -1.121,2.5 -2.5,2.5 -1.379,0 -2.5,-1.122 -2.5,-2.5 0,-1.378 1.121,-2.5 2.5,-2.5 m 0,-2 c -2.484,0 -4.5,2.015 -4.5,4.5 0,2.485 2.016,4.5 4.5,4.5 2.486,0 4.5,-2.015 4.5,-4.5 0,-2.485 -2.013,-4.5 -4.5,-4.5 z"
           id="path359" /></g></g><g
       id="g396"
       transform="matrix(0.95747033,0,0,0.95747033,11.307176,100.86327)"><path
         fill="#29b6f6"
         d="M 24,4 A 20,20 0 1 0 24,44 20,20 0 1 0 24,4 Z"
         id="path378" /><path
         fill="#ffffff"
         d="m 33.95,15 -3.746,19.126 c 0,0 -0.161,0.874 -1.245,0.874 -0.576,0 -0.873,-0.274 -0.873,-0.274 l -8.114,-6.733 -3.97,-2.001 -5.095,-1.355 c 0,0 -0.907,-0.262 -0.907,-1.012 0,-0.625 0.933,-0.923 0.933,-0.923 L 32.249,14.234 C 32.248,14.233 32.9,13.999 33.375,14 33.667,14 34,14.125 34,14.5 34,14.75 33.95,15 33.95,15 Z"
         id="path380" /><path
         fill="#b0bec5"
         d="m 23,30.505 -3.426,3.374 c 0,0 -0.149,0.115 -0.348,0.12 -0.069,0.002 -0.143,-0.009 -0.219,-0.043 l 0.964,-5.965 z"
         id="path382" /><path
         fill="#cfd8dc"
         d="m 29.897,18.196 c -0.169,-0.22 -0.481,-0.26 -0.701,-0.093 L 16,26 c 0,0 2.106,5.892 2.427,6.912 0.322,1.021 0.58,1.045 0.58,1.045 l 0.964,-5.965 9.832,-9.096 c 0.22,-0.167 0.261,-0.48 0.094,-0.7 z"
         id="path384" /></g><g
       id="g410"
       transform="matrix(0.95747033,0,0,0.95747033,11.307176,148.59043)"><path
         fill="#0288d1"
         d="m 42,37 c 0,2.762 -2.238,5 -5,5 H 11 C 8.239,42 6,39.762 6,37 V 11 C 6,8.238 8.239,6 11,6 h 26 c 2.762,0 5,2.238 5,5 z"
         id="path398" /><path
         fill="#ffffff"
         d="m 12,19 h 5 v 17 h -5 z m 2.485,-2 H 14.457 C 12.965,17 12,15.888 12,14.499 12,13.08 12.995,12 14.514,12 16.035,12 16.972,13.08 17,14.499 17,15.887 16.035,17 14.485,17 Z M 36,36 h -5 v -9.099 c 0,-2.198 -1.225,-3.698 -3.192,-3.698 -1.501,0 -2.313,1.012 -2.707,1.99 C 24.957,25.543 25,26.511 25,27 v 9 H 20 V 19 h 5 v 2.616 C 25.721,20.5 26.85,19 29.738,19 c 3.578,0 6.261,2.25 6.261,7.274 z"
         id="path400" /></g><g
       id="g424"
       transform="matrix(0.95747033,0,0,0.95747033,11.259303,10.19567)"><path
         fill="#ff3d00"
         d="M 43.2,33.9 C 42.8,36 41.1,37.6 39,37.9 35.7,38.4 30.2,39 24,39 17.9,39 12.4,38.4 9,37.9 6.9,37.6 5.2,36 4.8,33.9 4.4,31.6 4,28.2 4,24 4,19.8 4.4,16.4 4.8,14.1 5.2,12 6.9,10.4 9,10.1 12.3,9.6 17.8,9 24,9 c 6.2,0 11.6,0.6 15,1.1 2.1,0.3 3.8,1.9 4.2,4 0.4,2.3 0.9,5.7 0.9,9.9 -0.1,4.2 -0.5,7.6 -0.9,9.9 z"
         id="path412" /><path
         fill="#ffffff"
         d="M 20,31 V 17 l 12,7 z"
         id="path414" /></g><path
       fill="#03a9f4"
       d="m 111.5437,113.24244 c -1.26673,0.56108 -2.62921,0.93544 -4.06637,1.11258 1.46109,-0.86747 2.58517,-2.25102 3.11273,-3.88542 -1.36727,0.80141 -2.88199,1.39025 -4.49341,1.70047 -1.28683,-1.3644 -3.12231,-2.2108 -5.15597,-2.2108 -3.906486,0 -7.072836,3.13859 -7.072836,7.00868 0,0.54768 0.0641,1.08099 0.18479,1.59898 -5.87695,-0.2949 -11.08942,-3.0888 -14.57653,-7.32848 -0.61278,1.03599 -0.95747,2.2491 -0.95747,3.52924 0,2.43293 1.24567,4.57479 3.14529,5.83674 -1.15949,-0.0354 -2.25101,-0.3581 -3.20656,-0.87513 0,0.021 0,0.0527 0,0.0823 0,3.39998 2.43867,6.23122 5.67109,6.8756 -0.59076,0.16181 -1.21503,0.25181 -1.85845,0.25181 -0.45671,0 -0.90194,-0.0517 -1.33279,-0.12926 0.90001,2.77858 3.51103,4.80938 6.60462,4.8697 -2.42048,1.87664 -5.46907,3.00071 -8.78383,3.00071 -0.57257,0 -1.13269,-0.0326 -1.68611,-0.0996 3.13189,1.98292 6.8507,3.14529 10.8424,3.14529 13.007226,0 20.123146,-10.68153 20.123146,-19.94793 0,-0.30352 -0.01,-0.60608 -0.0239,-0.90481 1.38833,-0.98045 2.58517,-2.2175 3.53019,-3.63073"
       id="path426"
       style="stroke-width:0.957471"
       inkscape:export-filename="png\social media.png"
       inkscape:export-xdpi="77.627396"
       inkscape:export-ydpi="77.627396" /></g></svg>
